<?xml version="1.0" encoding="utf-8"?>
<!-- Generator: Adobe Illustrator 27.0.0, SVG Export Plug-In . SVG Version: 6.00 Build 0)  -->
<svg version="1.1" xmlns="http://www.w3.org/2000/svg" xmlns:xlink="http://www.w3.org/1999/xlink" x="0px" y="0px"
	 viewBox="0 0 1024 500" style="enable-background:new 0 0 1024 500;" xml:space="preserve">
<style type="text/css">
	.st0{fill:#014029;}
	.st1{fill:#77CDE6;}
	.st2{fill:#FFFFFF;}
	.st3{display:none;}
	.st4{display:inline;}
	.st5{fill:#78CCE5;}
	.st6{fill:#FDFEFE;}
	.st7{display:inline;fill:#014029;}
	.st8{fill:none;}
</style>
<g id="Layer_1">
	<g>
		<g>
			<g>
				<g>
					<path class="st2" d="M863.8,201.4c0-20.52-16.64-37.16-37.16-37.16c-20.52,0-37.16,16.64-37.16,37.16
						c0,2.84,0.33,5.61,0.93,8.27l34.43,231.05c0.31,2.07,3.29,2.07,3.6,0l34.43-231.05C863.47,207.01,863.8,204.25,863.8,201.4z"/>
				</g>
			</g>
			<g>
				<path class="st1" d="M767.74,70.45c-0.2,0.09-0.39,0.18-0.59,0.27l1.48,2.56L767.74,70.45z"/>
				<path class="st1" d="M683.44,201.18c0,64.92,43.13,119.75,102.3,137.44l-6.94-46.55c-32.55-17.26-54.73-51.48-54.73-90.89
					c0-34.32,16.81-64.71,42.65-83.38l-20.39-35.32C708.37,108.28,683.44,151.82,683.44,201.18z"/>
				<path class="st2" d="M826.89,57.73c-21.09,0-41.11,4.55-59.15,12.72l0.89,2.83l18.97,32.86c12.11-5.01,25.37-7.78,39.29-7.78
					c56.78,0,102.82,46.03,102.82,102.82c0,39.63-22.42,74.01-55.27,91.17l-6.92,46.42c59.43-17.52,102.82-72.49,102.82-137.6
					C970.34,121.95,906.11,57.73,826.89,57.73z"/>
			</g>
		</g>
		<g>
			<g>
				<path class="st2" d="M83.34,229.06c-8.27,0-14.4-2.08-18.41-6.25c-4.01-4.16-6.01-9.97-6.01-17.42v-29.06
					c0-0.63,0.22-1.17,0.66-1.61s0.98-0.66,1.61-0.66h23.47c5.93,0,10.65,0.88,14.15,2.65c3.5,1.77,6.06,4.32,7.67,7.67
					c1.61,3.34,2.51,7.42,2.7,12.21c0.06,0.63,0.09,1.59,0.09,2.89c0,1.29,0,2.59,0,3.88c0,1.29-0.03,2.26-0.09,2.89
					c-0.13,4.8-1.06,8.91-2.79,12.35c-1.74,3.44-4.46,6.04-8.19,7.81C94.47,228.18,89.52,229.06,83.34,229.06z M83.34,218.65
					c5.24,0,8.9-1.04,10.98-3.12c2.08-2.08,3.19-5.33,3.31-9.75c0.06-0.63,0.09-1.51,0.09-2.65s0-2.27,0-3.41s-0.03-2.02-0.09-2.65
					c-0.13-4.29-1.33-7.52-3.6-9.7c-2.27-2.18-5.55-3.26-9.84-3.26h-14.1v21.11c0,4.42,1.12,7.76,3.36,10.03
					C75.69,217.51,78.98,218.65,83.34,218.65z"/>
				<path class="st2" d="M122.52,228.11c-0.63,0-1.17-0.22-1.61-0.66c-0.44-0.44-0.66-0.98-0.66-1.61v-49.5
					c0-0.63,0.22-1.17,0.66-1.61c0.44-0.44,0.98-0.66,1.61-0.66h7.86c0.63,0,1.17,0.22,1.61,0.66c0.44,0.44,0.66,0.98,0.66,1.61
					v49.5c0,0.63-0.22,1.17-0.66,1.61c-0.44,0.44-0.98,0.66-1.61,0.66H122.52z"/>
				<path class="st2" d="M155.55,184.48v5.49c0.06,1.83,0.32,3.33,0.76,4.5c0.44,1.17,1.2,1.91,2.27,2.22l3.12,0.95
					c0.5,0.13,0.9,0.46,1.18,0.99c0.28,0.54,0.43,1.18,0.43,1.94l0.09,3.41c0,0.88-0.4,1.53-1.18,1.94
					c-0.79,0.41-1.66,0.55-2.6,0.43l-3.79-0.76c-2.08-0.38-3.91-1.25-5.49-2.6c-1.58-1.36-2.79-3.19-3.64-5.49
					c-0.85-2.3-1.28-5.03-1.28-8.19v-12.97c0.06-0.63,0.28-1.17,0.66-1.61c0.38-0.44,0.91-0.66,1.61-0.66h18.27
					c5.17,0,9.45,0.96,12.82,2.89c3.38,1.92,5.92,4.67,7.62,8.23c1.7,3.56,2.65,7.81,2.84,12.73c0.06,0.95,0.09,2,0.09,3.17
					c0,1.17-0.03,2.22-0.09,3.17c-0.19,4.86-1.14,9.09-2.84,12.68c-1.7,3.6-4.24,6.36-7.62,8.28c-3.38,1.93-7.65,2.89-12.82,2.89
					h-17.13c-0.63,0-1.17-0.22-1.61-0.66c-0.44-0.44-0.66-0.98-0.66-1.61v-5.87c0-0.63,0.22-1.17,0.66-1.61
					c0.44-0.44,0.98-0.66,1.61-0.66h16.66c3.79,0,6.8-1.18,9.04-3.55c2.24-2.37,3.45-5.69,3.64-9.99c0.06-0.95,0.09-1.97,0.09-3.08
					c0-1.1-0.03-2.13-0.09-3.08c-0.13-4.29-1.33-7.62-3.6-9.99s-5.3-3.55-9.09-3.55H155.55z"/>
				<path class="st2" d="M200.32,228.11c-0.57,0-1.07-0.22-1.51-0.66c-0.44-0.44-0.6-1.01-0.47-1.7l8.99-44.2
					c0.12-0.69,0.41-1.23,0.85-1.61c0.44-0.38,0.98-0.54,1.61-0.47l6.34,0.19c0.69,0.06,1.25,0.35,1.66,0.85
					c0.41,0.51,0.55,1.07,0.43,1.7l-8.14,43.54c0,0.7-0.25,1.26-0.76,1.7c-0.51,0.44-1.07,0.66-1.7,0.66H200.32z M226.54,184.39
					l-25.37,0.09c-0.63,0-1.17-0.22-1.61-0.66c-0.44-0.44-0.66-0.98-0.66-1.61v-5.87c0-0.63,0.22-1.17,0.66-1.61
					c0.44-0.44,0.98-0.66,1.61-0.66h26.97c4.04,0,7.67,0.87,10.88,2.6c3.22,1.74,5.73,4.31,7.52,7.71c1.8,3.41,2.7,7.67,2.7,12.78
					v28.68c0,0.63-0.21,1.17-0.62,1.61c-0.41,0.44-0.96,0.66-1.66,0.66H222c-0.69,0-1.25-0.22-1.66-0.66
					c-0.41-0.44-0.62-0.98-0.62-1.61v-5.49c0-0.63,0.2-1.17,0.62-1.61c0.41-0.44,0.96-0.66,1.66-0.66h15.33v-20.26
					c0-2.78-0.47-5.17-1.42-7.19c-0.95-2.02-2.24-3.56-3.88-4.64C230.39,184.92,228.56,184.39,226.54,184.39z"/>
				<path class="st2" d="M284.37,229.15c-0.63,0.13-1.2-0.03-1.7-0.47c-0.51-0.44-0.76-0.98-0.76-1.61v-6.72
					c0-0.63,0.2-1.2,0.62-1.7c0.41-0.5,0.96-0.88,1.66-1.14l3.31-1.33c2.14-0.88,4.1-2,5.87-3.36c1.77-1.36,3.15-3.19,4.17-5.49
					c1.01-2.3,1.51-5.28,1.51-8.94c0-3.47-0.39-6.21-1.18-8.23c-0.79-2.02-2.15-3.47-4.07-4.35c-1.93-0.88-4.53-1.33-7.81-1.33
					h-21.96c-0.63,0-1.17-0.22-1.61-0.66c-0.44-0.44-0.66-0.98-0.66-1.61v-5.96c0-0.63,0.22-1.15,0.66-1.56
					c0.44-0.41,0.98-0.62,1.61-0.62h24.13c5.74,0,10.3,0.87,13.68,2.6c3.38,1.74,5.8,4.39,7.29,7.95c1.48,3.57,2.22,8.12,2.22,13.68
					c0,4.35-0.63,8.17-1.89,11.45c-1.26,3.28-3,6.11-5.21,8.47c-2.21,2.37-4.69,4.34-7.43,5.92c-2.75,1.58-5.6,2.84-8.57,3.79
					L284.37,229.15z M264.02,246.19c-0.63,0-1.17-0.22-1.61-0.66c-0.44-0.44-0.66-0.98-0.66-1.61v-47.89c0-0.63,0.22-1.17,0.66-1.61
					c0.44-0.44,0.98-0.66,1.61-0.66h7.19c0.69,0,1.25,0.22,1.66,0.66c0.41,0.44,0.62,0.98,0.62,1.61v47.89
					c0,0.63-0.21,1.17-0.62,1.61c-0.41,0.44-0.96,0.66-1.66,0.66H264.02z"/>
				<path class="st2" d="M368.99,229.06c-8.71,0-15.05-2.07-19.02-6.2c-3.98-4.13-5.96-9.86-5.96-17.18v-29.34
					c0-0.63,0.2-1.17,0.62-1.61c0.41-0.44,0.96-0.66,1.66-0.66h6.62c0.63,0,1.17,0.22,1.61,0.66c0.44,0.44,0.66,0.98,0.66,1.61
					v28.87c0,4.42,1.18,7.76,3.55,10.03s5.79,3.41,10.27,3.41c4.42,0,7.7-1.06,9.84-3.17c2.14-2.11,3.25-5.35,3.31-9.7
					c0.06-0.63,0.08-1.5,0.05-2.6c-0.03-1.1-0.05-2.21-0.05-3.31c0-1.1,0-1.97,0-2.6c-0.06-4.48-0.93-7.81-2.6-9.99
					c-1.67-2.18-3.93-3.27-6.77-3.27c-0.95,0-2.04,0.16-3.27,0.47c-1.23,0.32-2.26,0.73-3.08,1.23c-0.63,0.32-1.25,0.32-1.85,0
					c-0.6-0.31-0.9-0.85-0.9-1.61v-5.11c0-0.63,0.08-1.21,0.24-1.75c0.16-0.54,0.55-0.99,1.18-1.37c1.14-0.63,2.41-1.15,3.83-1.56
					c1.42-0.41,3.33-0.62,5.73-0.62c4.42,0,8.01,0.79,10.79,2.37c2.78,1.58,4.86,3.99,6.25,7.24c1.39,3.25,2.11,7.37,2.18,12.35
					c0.06,0.63,0.09,1.67,0.09,3.12s0,2.9,0,4.35c0,1.45-0.03,2.49-0.09,3.12c-0.13,4.8-1.06,8.91-2.79,12.35
					c-1.74,3.44-4.4,6.04-8,7.81C379.49,228.18,374.79,229.06,368.99,229.06z"/>
				<path class="st2" d="M434.39,228.11c-0.7,0-1.25-0.2-1.66-0.62c-0.41-0.41-0.62-0.96-0.62-1.66v-28.21
					c0-4.29-1.09-7.62-3.27-9.98c-2.18-2.37-5.63-3.55-10.36-3.55h-13.25c-0.69,0-1.25-0.22-1.66-0.66
					c-0.41-0.44-0.62-1.01-0.62-1.7v-5.39c0-0.63,0.2-1.17,0.62-1.61c0.41-0.44,0.96-0.66,1.66-0.66h13.82
					c5.55,0,10.17,0.8,13.87,2.41c3.69,1.61,6.47,4.12,8.33,7.52c1.86,3.41,2.79,7.79,2.79,13.16v28.68c0,0.63-0.21,1.17-0.62,1.61
					c-0.41,0.44-0.96,0.66-1.66,0.66H434.39z"/>
				<path class="st2" d="M457.01,228.11c-0.63,0-1.17-0.22-1.61-0.66s-0.66-1.01-0.66-1.7v-13.06c0-3.22,0.3-6.15,0.9-8.8
					c0.6-2.65,1.73-5.13,3.41-7.43c1.67-2.3,4.08-4.5,7.24-6.58l5.87,8.52c-1.89,1.26-3.31,2.73-4.26,4.4
					c-0.95,1.67-1.56,3.38-1.85,5.11c-0.28,1.74-0.43,3.39-0.43,4.97v12.87c0,0.7-0.22,1.26-0.66,1.7s-0.98,0.66-1.61,0.66H457.01z
					 M493.36,228.11c-0.82,0-1.45-0.22-1.89-0.66c-0.44-0.44-0.79-0.79-1.04-1.04l-34.36-48.84c-0.38-0.57-0.57-1.07-0.57-1.52
					c0-0.57,0.19-1.04,0.57-1.42c0.38-0.38,0.85-0.57,1.42-0.57h7.48c0.88,0,1.55,0.22,1.99,0.66c0.44,0.44,0.79,0.82,1.04,1.14
					l34.64,48.74c0.25,0.38,0.41,0.68,0.47,0.9c0.06,0.22,0.09,0.43,0.09,0.62c0,0.57-0.21,1.04-0.62,1.42
					c-0.41,0.38-0.87,0.57-1.37,0.57H493.36z M489.19,210.32l-5.58-8.52c2.59-1.26,4.42-2.6,5.49-4.02c1.07-1.42,1.72-2.89,1.94-4.4
					c0.22-1.51,0.33-3.06,0.33-4.64v-12.3c0-0.69,0.2-1.26,0.62-1.7c0.41-0.44,0.96-0.66,1.66-0.66h6.63c0.69,0,1.26,0.22,1.7,0.66
					s0.66,1.01,0.66,1.7v12.78c0,2.59-0.33,5.11-0.99,7.57c-0.66,2.46-1.94,4.81-3.83,7.05
					C495.91,206.08,493.04,208.24,489.19,210.32z"/>
				<path class="st2" d="M514.37,228.11c-0.57,0-1.07-0.22-1.51-0.66c-0.44-0.44-0.6-1.01-0.47-1.7l8.99-44.2
					c0.12-0.69,0.41-1.23,0.85-1.61c0.44-0.38,0.98-0.54,1.61-0.47l6.34,0.19c0.69,0.06,1.25,0.35,1.66,0.85
					c0.41,0.51,0.55,1.07,0.43,1.7l-8.14,43.54c0,0.7-0.25,1.26-0.76,1.7c-0.51,0.44-1.07,0.66-1.7,0.66H514.37z M540.59,184.39
					l-25.37,0.09c-0.63,0-1.17-0.22-1.61-0.66c-0.44-0.44-0.66-0.98-0.66-1.61v-5.87c0-0.63,0.22-1.17,0.66-1.61
					c0.44-0.44,0.98-0.66,1.61-0.66h26.97c4.04,0,7.67,0.87,10.88,2.6c3.22,1.74,5.73,4.31,7.52,7.71c1.8,3.41,2.7,7.67,2.7,12.78
					v28.68c0,0.63-0.21,1.17-0.62,1.61c-0.41,0.44-0.96,0.66-1.66,0.66h-24.99c-0.69,0-1.25-0.22-1.66-0.66
					c-0.41-0.44-0.62-0.98-0.62-1.61v-5.49c0-0.63,0.2-1.17,0.62-1.61c0.41-0.44,0.96-0.66,1.66-0.66h15.33v-20.26
					c0-2.78-0.47-5.17-1.42-7.19c-0.95-2.02-2.24-3.56-3.88-4.64C544.43,184.92,542.6,184.39,540.59,184.39z"/>
				<path class="st2" d="M599.65,229.06c-8.27,0-14.4-2.08-18.41-6.25c-4.01-4.16-6.01-9.97-6.01-17.42v-29.06
					c0-0.63,0.22-1.17,0.66-1.61s0.98-0.66,1.61-0.66h23.47c5.93,0,10.65,0.88,14.15,2.65c3.5,1.77,6.06,4.32,7.67,7.67
					c1.61,3.34,2.51,7.42,2.7,12.21c0.06,0.63,0.09,1.59,0.09,2.89c0,1.29,0,2.59,0,3.88c0,1.29-0.03,2.26-0.09,2.89
					c-0.13,4.8-1.06,8.91-2.79,12.35c-1.74,3.44-4.46,6.04-8.19,7.81C610.78,228.18,605.83,229.06,599.65,229.06z M599.65,218.65
					c5.24,0,8.9-1.04,10.98-3.12c2.08-2.08,3.19-5.33,3.31-9.75c0.06-0.63,0.09-1.51,0.09-2.65s0-2.27,0-3.41s-0.03-2.02-0.09-2.65
					c-0.13-4.29-1.33-7.52-3.6-9.7c-2.27-2.18-5.55-3.26-9.84-3.26h-14.1v21.11c0,4.42,1.12,7.76,3.36,10.03
					C592,217.51,595.29,218.65,599.65,218.65z"/>
			</g>
			<g>
				<g>
					<path class="st1" d="M81.96,319.32c-4.09,0-7.53-0.63-10.3-1.9c-2.78-1.27-4.9-2.9-6.38-4.9c-1.48-2-2.27-4.1-2.36-6.31
						c0-0.38,0.15-0.72,0.46-1.02c0.31-0.3,0.67-0.46,1.09-0.46h3.6c0.56,0,0.99,0.14,1.27,0.42s0.47,0.61,0.56,0.99
						c0.28,1.13,0.87,2.25,1.76,3.35s2.18,2.02,3.85,2.75c1.67,0.73,3.82,1.09,6.46,1.09c4.04,0,7.02-0.72,8.93-2.15
						c1.9-1.43,2.86-3.35,2.86-5.75c0-1.65-0.51-2.97-1.52-3.99c-1.01-1.01-2.55-1.92-4.62-2.72c-2.07-0.8-4.75-1.67-8.04-2.61
						c-3.43-0.99-6.28-2.07-8.54-3.25s-3.94-2.63-5.04-4.38c-1.11-1.74-1.66-3.95-1.66-6.63c0-2.54,0.68-4.81,2.05-6.81
						c1.36-2,3.34-3.59,5.93-4.76c2.59-1.18,5.69-1.76,9.31-1.76c2.92,0,5.47,0.39,7.66,1.16c2.19,0.78,4.01,1.81,5.47,3.1
						s2.56,2.68,3.32,4.16c0.75,1.48,1.15,2.93,1.2,4.34c0,0.33-0.12,0.65-0.35,0.95c-0.24,0.31-0.61,0.46-1.13,0.46h-3.74
						c-0.33,0-0.67-0.09-1.02-0.28c-0.35-0.19-0.62-0.54-0.81-1.06c-0.28-1.93-1.36-3.55-3.25-4.87c-1.88-1.32-4.33-1.98-7.34-1.98
						c-3.06,0-5.54,0.59-7.44,1.76c-1.9,1.18-2.86,3.01-2.86,5.5c0,1.6,0.45,2.93,1.34,3.99c0.89,1.06,2.3,1.99,4.23,2.79
						c1.93,0.8,4.45,1.65,7.55,2.54c3.76,1.04,6.84,2.13,9.24,3.28c2.4,1.15,4.17,2.59,5.33,4.3c1.15,1.72,1.73,3.92,1.73,6.6
						c0,2.96-0.78,5.49-2.33,7.58c-1.55,2.09-3.73,3.69-6.53,4.8C89.08,318.76,85.77,319.32,81.96,319.32z"/>
					<path class="st1" d="M116.32,318.61c-0.47,0-0.86-0.15-1.16-0.46c-0.31-0.3-0.46-0.69-0.46-1.16v-33.44
						c0-0.47,0.15-0.86,0.46-1.16c0.31-0.31,0.69-0.46,1.16-0.46h3.17c0.47,0,0.86,0.15,1.17,0.46c0.3,0.31,0.46,0.69,0.46,1.16
						v2.47c1.08-1.46,2.45-2.62,4.09-3.49c1.65-0.87,3.62-1.3,5.93-1.3c5.31-0.05,9.08,2.12,11.29,6.49
						c1.08-1.98,2.66-3.55,4.73-4.73c2.07-1.18,4.42-1.76,7.06-1.76c2.45,0,4.67,0.56,6.67,1.69c2,1.13,3.57,2.83,4.73,5.12
						c1.15,2.28,1.73,5.14,1.73,8.57v20.39c0,0.47-0.15,0.86-0.46,1.16c-0.31,0.31-0.69,0.46-1.16,0.46h-3.32
						c-0.47,0-0.86-0.15-1.16-0.46c-0.31-0.3-0.46-0.69-0.46-1.16v-19.76c0-2.63-0.38-4.7-1.13-6.21c-0.75-1.5-1.76-2.56-3.03-3.17
						c-1.27-0.61-2.66-0.92-4.16-0.92c-1.22,0-2.47,0.31-3.74,0.92c-1.27,0.61-2.32,1.67-3.14,3.17c-0.82,1.51-1.24,3.58-1.24,6.21
						v19.76c0,0.47-0.15,0.86-0.46,1.16c-0.31,0.31-0.69,0.46-1.16,0.46h-3.32c-0.47,0-0.86-0.15-1.16-0.46
						c-0.31-0.3-0.46-0.69-0.46-1.16v-19.76c0-2.63-0.4-4.7-1.2-6.21c-0.8-1.5-1.83-2.56-3.1-3.17c-1.27-0.61-2.61-0.92-4.02-0.92
						c-1.22,0-2.47,0.31-3.74,0.92c-1.27,0.61-2.32,1.67-3.14,3.17c-0.82,1.51-1.23,3.55-1.23,6.14v19.83
						c0,0.47-0.15,0.86-0.46,1.16c-0.31,0.31-0.69,0.46-1.16,0.46H116.32z"/>
					<path class="st1" d="M193.3,319.32c-2.35,0-4.49-0.47-6.42-1.41c-1.93-0.94-3.48-2.21-4.66-3.81c-1.18-1.6-1.76-3.41-1.76-5.43
						c0-3.25,1.32-5.83,3.95-7.76c2.63-1.93,6.07-3.2,10.3-3.81l10.51-1.48v-2.05c0-2.26-0.65-4.02-1.94-5.29
						c-1.29-1.27-3.4-1.91-6.31-1.91c-2.07,0-3.76,0.42-5.08,1.27c-1.32,0.85-2.24,1.93-2.75,3.25c-0.28,0.71-0.78,1.06-1.48,1.06
						h-3.18c-0.52,0-0.91-0.15-1.16-0.46c-0.26-0.31-0.39-0.67-0.39-1.09c0-0.71,0.27-1.58,0.81-2.61c0.54-1.03,1.38-2.05,2.5-3.03
						c1.13-0.99,2.58-1.82,4.34-2.5c1.76-0.68,3.92-1.02,6.46-1.02c2.82,0,5.2,0.36,7.13,1.09c1.93,0.73,3.45,1.71,4.55,2.93
						c1.11,1.22,1.91,2.61,2.4,4.16c0.49,1.55,0.74,3.13,0.74,4.73v22.86c0,0.47-0.15,0.86-0.46,1.16
						c-0.31,0.31-0.69,0.46-1.16,0.46h-3.25c-0.52,0-0.92-0.15-1.2-0.46c-0.28-0.3-0.42-0.69-0.42-1.16v-3.03
						c-0.61,0.85-1.43,1.68-2.47,2.5c-1.04,0.82-2.33,1.51-3.88,2.05C197.47,319.05,195.56,319.32,193.3,319.32z M194.78,314.03
						c1.93,0,3.69-0.41,5.29-1.24c1.6-0.82,2.86-2.1,3.77-3.84s1.38-3.93,1.38-6.56v-1.98l-8.18,1.2c-3.34,0.47-5.86,1.26-7.55,2.36
						c-1.69,1.11-2.54,2.5-2.54,4.2c0,1.32,0.39,2.41,1.16,3.28c0.78,0.87,1.76,1.52,2.96,1.94
						C192.28,313.81,193.51,314.03,194.78,314.03z"/>
					<path class="st1" d="M229.29,318.61c-0.47,0-0.86-0.15-1.16-0.46c-0.31-0.3-0.46-0.69-0.46-1.16v-33.37
						c0-0.47,0.15-0.87,0.46-1.2c0.31-0.33,0.69-0.49,1.16-0.49h3.25c0.47,0,0.87,0.17,1.2,0.49c0.33,0.33,0.49,0.73,0.49,1.2v3.1
						c0.94-1.6,2.23-2.8,3.88-3.6c1.65-0.8,3.65-1.2,6-1.2h2.75c0.47,0,0.86,0.15,1.17,0.46c0.3,0.31,0.46,0.69,0.46,1.16v2.89
						c0,0.47-0.15,0.85-0.46,1.13c-0.31,0.28-0.7,0.42-1.17,0.42h-4.23c-2.54,0-4.54,0.74-6,2.22c-1.46,1.48-2.19,3.49-2.19,6.03
						v20.74c0,0.47-0.17,0.86-0.49,1.16c-0.33,0.31-0.73,0.46-1.2,0.46H229.29z"/>
					<path class="st1" d="M274.44,318.61c-2.63,0-4.77-0.5-6.42-1.52s-2.85-2.45-3.6-4.3c-0.75-1.86-1.13-4.06-1.13-6.6v-18.63h-5.5
						c-0.47,0-0.86-0.15-1.16-0.46c-0.31-0.3-0.46-0.69-0.46-1.16v-2.4c0-0.47,0.15-0.86,0.46-1.16c0.31-0.31,0.69-0.46,1.16-0.46
						h5.5v-11.78c0-0.47,0.15-0.86,0.46-1.16c0.31-0.31,0.69-0.46,1.16-0.46h3.32c0.47,0,0.86,0.15,1.16,0.46
						c0.31,0.31,0.46,0.69,0.46,1.16v11.78h8.75c0.52,0,0.92,0.15,1.2,0.46s0.42,0.69,0.42,1.16v2.4c0,0.47-0.14,0.86-0.42,1.16
						c-0.28,0.31-0.68,0.46-1.2,0.46h-8.75v18.13c0,2.21,0.38,3.95,1.13,5.22c0.75,1.27,2.09,1.91,4.02,1.91h4.3
						c0.47,0,0.86,0.15,1.17,0.46c0.3,0.31,0.46,0.69,0.46,1.16v2.54c0,0.47-0.15,0.86-0.46,1.16c-0.31,0.31-0.7,0.46-1.17,0.46
						H274.44z"/>
					<path class="st1" d="M353.32,319.32c-4.33,0-7.92-0.8-10.76-2.4c-2.85-1.6-5-3.83-6.46-6.7c-1.46-2.87-2.26-6.21-2.4-10.02
						c-0.05-1.93-0.07-4-0.07-6.21s0.02-4.33,0.07-6.35c0.14-3.81,0.94-7.15,2.4-10.02c1.46-2.87,3.61-5.1,6.46-6.7
						c2.84-1.6,6.43-2.4,10.76-2.4c3.25,0,6.09,0.45,8.54,1.34c2.45,0.89,4.48,2.09,6.1,3.6c1.62,1.51,2.86,3.19,3.7,5.04
						c0.85,1.86,1.32,3.77,1.41,5.75c0.05,0.42-0.08,0.78-0.39,1.06s-0.67,0.42-1.09,0.42h-3.88c-0.42,0-0.79-0.12-1.09-0.35
						c-0.31-0.23-0.53-0.66-0.67-1.27c-0.8-3.67-2.29-6.18-4.48-7.55c-2.19-1.36-4.9-2.05-8.15-2.05c-3.81,0-6.82,1.07-9.03,3.21
						c-2.21,2.14-3.39,5.56-3.53,10.27c-0.14,3.86-0.14,7.81,0,11.85c0.14,4.7,1.32,8.13,3.53,10.27c2.21,2.14,5.22,3.21,9.03,3.21
						c3.25,0,5.96-0.68,8.15-2.05c2.19-1.36,3.68-3.88,4.48-7.55c0.14-0.61,0.36-1.03,0.67-1.27c0.31-0.24,0.67-0.35,1.09-0.35h3.88
						c0.42,0,0.79,0.13,1.09,0.39c0.31,0.26,0.43,0.6,0.39,1.02c-0.09,1.98-0.56,3.9-1.41,5.79c-0.85,1.88-2.08,3.58-3.7,5.08
						c-1.62,1.51-3.66,2.71-6.1,3.6C359.42,318.87,356.57,319.32,353.32,319.32z"/>
					<path class="st1" d="M397.49,319.32c-2.35,0-4.49-0.47-6.42-1.41c-1.93-0.94-3.48-2.21-4.66-3.81
						c-1.18-1.6-1.76-3.41-1.76-5.43c0-3.25,1.32-5.83,3.95-7.76c2.63-1.93,6.07-3.2,10.3-3.81l10.51-1.48v-2.05
						c0-2.26-0.65-4.02-1.94-5.29c-1.29-1.27-3.4-1.91-6.31-1.91c-2.07,0-3.76,0.42-5.08,1.27c-1.32,0.85-2.24,1.93-2.75,3.25
						c-0.28,0.71-0.78,1.06-1.48,1.06h-3.18c-0.52,0-0.91-0.15-1.16-0.46c-0.26-0.31-0.39-0.67-0.39-1.09
						c0-0.71,0.27-1.58,0.81-2.61c0.54-1.03,1.38-2.05,2.5-3.03c1.13-0.99,2.58-1.82,4.34-2.5c1.76-0.68,3.92-1.02,6.46-1.02
						c2.82,0,5.2,0.36,7.13,1.09c1.93,0.73,3.45,1.71,4.55,2.93c1.11,1.22,1.91,2.61,2.4,4.16c0.49,1.55,0.74,3.13,0.74,4.73v22.86
						c0,0.47-0.15,0.86-0.46,1.16c-0.31,0.31-0.69,0.46-1.16,0.46h-3.25c-0.52,0-0.92-0.15-1.2-0.46c-0.28-0.3-0.42-0.69-0.42-1.16
						v-3.03c-0.61,0.85-1.43,1.68-2.47,2.5c-1.04,0.82-2.33,1.51-3.88,2.05C401.66,319.05,399.75,319.32,397.49,319.32z
						 M398.97,314.03c1.93,0,3.69-0.41,5.29-1.24c1.6-0.82,2.86-2.1,3.77-3.84s1.38-3.93,1.38-6.56v-1.98l-8.18,1.2
						c-3.34,0.47-5.86,1.26-7.55,2.36c-1.69,1.11-2.54,2.5-2.54,4.2c0,1.32,0.39,2.41,1.16,3.28c0.78,0.87,1.76,1.52,2.96,1.94
						C396.47,313.81,397.7,314.03,398.97,314.03z"/>
					<path class="st1" d="M433.48,318.61c-0.47,0-0.86-0.15-1.16-0.46c-0.31-0.3-0.46-0.69-0.46-1.16v-33.44
						c0-0.47,0.15-0.86,0.46-1.16c0.31-0.31,0.69-0.46,1.16-0.46h3.17c0.47,0,0.86,0.15,1.17,0.46c0.3,0.31,0.46,0.69,0.46,1.16
						v2.47c1.08-1.46,2.45-2.62,4.09-3.49c1.65-0.87,3.62-1.3,5.93-1.3c5.31-0.05,9.08,2.12,11.29,6.49
						c1.08-1.98,2.66-3.55,4.73-4.73c2.07-1.18,4.42-1.76,7.06-1.76c2.45,0,4.67,0.56,6.67,1.69c2,1.13,3.57,2.83,4.73,5.12
						c1.15,2.28,1.73,5.14,1.73,8.57v20.39c0,0.47-0.15,0.86-0.46,1.16c-0.31,0.31-0.69,0.46-1.16,0.46h-3.32
						c-0.47,0-0.86-0.15-1.16-0.46c-0.31-0.3-0.46-0.69-0.46-1.16v-19.76c0-2.63-0.38-4.7-1.13-6.21c-0.75-1.5-1.76-2.56-3.03-3.17
						c-1.27-0.61-2.66-0.92-4.16-0.92c-1.22,0-2.47,0.31-3.74,0.92c-1.27,0.61-2.32,1.67-3.14,3.17c-0.82,1.51-1.24,3.58-1.24,6.21
						v19.76c0,0.47-0.15,0.86-0.46,1.16c-0.31,0.31-0.69,0.46-1.16,0.46h-3.32c-0.47,0-0.86-0.15-1.16-0.46
						c-0.31-0.3-0.46-0.69-0.46-1.16v-19.76c0-2.63-0.4-4.7-1.2-6.21c-0.8-1.5-1.83-2.56-3.1-3.17c-1.27-0.61-2.61-0.92-4.02-0.92
						c-1.22,0-2.47,0.31-3.74,0.92c-1.27,0.61-2.32,1.67-3.14,3.17c-0.82,1.51-1.23,3.55-1.23,6.14v19.83
						c0,0.47-0.15,0.86-0.46,1.16c-0.31,0.31-0.69,0.46-1.16,0.46H433.48z"/>
					<path class="st1" d="M501.92,332.02c-0.47,0-0.86-0.15-1.16-0.46c-0.31-0.31-0.46-0.69-0.46-1.16v-46.85
						c0-0.47,0.15-0.86,0.46-1.16s0.69-0.46,1.16-0.46h3.25c0.47,0,0.86,0.15,1.16,0.46c0.31,0.31,0.46,0.69,0.46,1.16v3.1
						c1.13-1.55,2.63-2.85,4.52-3.88c1.88-1.03,4.23-1.55,7.06-1.55c2.63,0,4.88,0.45,6.74,1.34c1.86,0.89,3.39,2.12,4.59,3.67
						c1.2,1.55,2.1,3.32,2.72,5.29s0.96,4.09,1.06,6.35c0.05,0.75,0.07,1.55,0.07,2.4s-0.02,1.65-0.07,2.4
						c-0.09,2.21-0.45,4.32-1.06,6.31c-0.61,2-1.52,3.76-2.72,5.29s-2.73,2.75-4.59,3.67c-1.86,0.92-4.1,1.38-6.74,1.38
						c-2.73,0-5.02-0.51-6.88-1.52c-1.86-1.01-3.38-2.27-4.55-3.77v16.37c0,0.47-0.14,0.86-0.42,1.16
						c-0.28,0.31-0.66,0.46-1.13,0.46H501.92z M516.87,313.6c2.45,0,4.36-0.53,5.75-1.59c1.39-1.06,2.39-2.45,3-4.16
						c0.61-1.72,0.96-3.56,1.06-5.54c0.05-1.36,0.05-2.73,0-4.09c-0.09-1.98-0.45-3.82-1.06-5.54c-0.61-1.72-1.61-3.1-3-4.16
						c-1.39-1.06-3.31-1.59-5.75-1.59c-2.3,0-4.17,0.54-5.61,1.62c-1.44,1.08-2.49,2.46-3.18,4.13c-0.68,1.67-1.07,3.38-1.16,5.12
						c-0.05,0.75-0.07,1.65-0.07,2.68c0,1.04,0.02,1.95,0.07,2.75c0.05,1.65,0.43,3.27,1.16,4.87c0.73,1.6,1.82,2.92,3.28,3.95
						C512.83,313.09,514.66,313.6,516.87,313.6z"/>
					<path class="st1" d="M561.61,319.32c-3.01,0-5.56-0.67-7.66-2.01c-2.09-1.34-3.68-3.21-4.76-5.61
						c-1.08-2.4-1.62-5.15-1.62-8.26v-19.9c0-0.47,0.15-0.86,0.46-1.16c0.31-0.31,0.69-0.46,1.16-0.46h3.53
						c0.47,0,0.86,0.15,1.17,0.46c0.3,0.31,0.46,0.69,0.46,1.16v19.54c0,7.01,3.06,10.51,9.17,10.51c2.92,0,5.26-0.93,7.02-2.79
						c1.76-1.86,2.65-4.43,2.65-7.73v-19.54c0-0.47,0.15-0.86,0.46-1.16c0.3-0.31,0.69-0.46,1.16-0.46h3.53
						c0.47,0,0.85,0.15,1.13,0.46s0.42,0.69,0.42,1.16v33.44c0,0.47-0.14,0.86-0.42,1.16c-0.28,0.31-0.66,0.46-1.13,0.46h-3.32
						c-0.47,0-0.86-0.15-1.16-0.46c-0.31-0.3-0.46-0.69-0.46-1.16v-3.1c-1.27,1.65-2.81,2.96-4.62,3.95
						C566.96,318.82,564.57,319.32,561.61,319.32z"/>
					<path class="st1" d="M608.74,319.32c-2.63,0-4.89-0.33-6.77-0.99c-1.88-0.66-3.41-1.46-4.59-2.4
						c-1.18-0.94-2.06-1.88-2.65-2.82c-0.59-0.94-0.91-1.69-0.95-2.26c-0.05-0.52,0.12-0.92,0.49-1.2c0.38-0.28,0.75-0.42,1.13-0.42
						h3.17c0.24,0,0.43,0.04,0.6,0.11c0.16,0.07,0.39,0.27,0.67,0.6c0.61,0.66,1.29,1.32,2.05,1.98c0.75,0.66,1.68,1.2,2.79,1.62
						c1.1,0.42,2.48,0.63,4.13,0.63c2.4,0,4.37-0.46,5.93-1.38c1.55-0.92,2.33-2.27,2.33-4.06c0-1.17-0.32-2.12-0.95-2.82
						c-0.64-0.71-1.76-1.34-3.39-1.91c-1.62-0.56-3.85-1.15-6.67-1.76c-2.82-0.66-5.06-1.47-6.7-2.43
						c-1.65-0.96-2.82-2.12-3.53-3.46c-0.71-1.34-1.06-2.86-1.06-4.55c0-1.74,0.52-3.42,1.55-5.04c1.03-1.62,2.55-2.95,4.55-3.99
						c2-1.03,4.5-1.55,7.51-1.55c2.45,0,4.54,0.31,6.28,0.92s3.18,1.38,4.3,2.29s1.98,1.82,2.54,2.72s0.87,1.65,0.92,2.26
						c0.05,0.47-0.09,0.86-0.42,1.16s-0.71,0.46-1.13,0.46h-2.96c-0.33,0-0.6-0.07-0.81-0.21c-0.21-0.14-0.41-0.31-0.6-0.49
						c-0.47-0.61-1.02-1.22-1.66-1.83c-0.63-0.61-1.46-1.12-2.47-1.52c-1.01-0.4-2.34-0.6-3.99-0.6c-2.35,0-4.12,0.49-5.29,1.48
						c-1.18,0.99-1.76,2.23-1.76,3.74c0,0.89,0.26,1.69,0.78,2.4c0.52,0.71,1.5,1.34,2.96,1.91s3.62,1.18,6.49,1.83
						c3.1,0.61,5.55,1.44,7.34,2.47c1.79,1.04,3.06,2.23,3.81,3.6c0.75,1.36,1.13,2.94,1.13,4.73c0,1.98-0.56,3.79-1.69,5.43
						s-2.82,2.95-5.08,3.92C614.81,318.83,612.03,319.32,608.74,319.32z"/>
				</g>
			</g>
		</g>
	</g>
</g>
<g id="diff" class="st3">
</g>
</svg>
