<?xml version="1.0" encoding="utf-8"?>
<!-- Generator: Adobe Illustrator 27.0.0, SVG Export Plug-In . SVG Version: 6.00 Build 0)  -->
<svg version="1.1" xmlns="http://www.w3.org/2000/svg" xmlns:xlink="http://www.w3.org/1999/xlink" x="0px" y="0px"
	 viewBox="0 0 512 512" style="enable-background:new 0 0 512 512;" xml:space="preserve">
<style type="text/css">
	.st0{fill:#014029;}
	.st1{fill:#77CDE6;}
	.st2{fill:#FFFFFF;}
	.st3{display:none;}
	.st4{display:inline;}
	.st5{fill:#78CCE5;}
	.st6{fill:#FDFEFE;}
	.st7{display:inline;fill:#014029;}
	.st8{fill:none;}
</style>
<g id="Layer_1">
	<g>
		<path class="st0" d="M392,512H120C53.73,512,0,458.27,0,392l0-272C0,53.73,53.73,0,120,0l272,0c66.27,0,120,53.73,120,120v272
			C512,458.27,458.27,512,392,512z"/>
		<g>
			<path class="st0" d="M189.85,45.79l0.05,0.08l1.1-0.62C191,45.25,190.24,45.61,189.85,45.79z"/>
			<g>
				<path class="st2" d="M416.76,211.28c0-88.79-71.98-160.76-160.76-160.76c-20.2,0-39.52,3.74-57.33,10.54l23.18,40.15
					c10.79-3.35,22.26-5.16,34.15-5.16c63.64,0,115.23,51.59,115.23,115.23c0,35.74-16.29,67.67-41.83,88.81l-8.7,58.38
					C377.26,333.58,416.76,277.05,416.76,211.28z"/>
				<path class="st1" d="M140.77,211.28c0-35.06,15.66-66.45,40.36-87.58l-23.05-39.92c-38.21,29.39-62.85,75.57-62.85,127.5
					c0,65.56,39.26,121.94,95.54,146.95l-8.73-58.61C156.82,278.49,140.77,246.77,140.77,211.28z"/>
			</g>
			<g>
				<g>
					<path class="st2" d="M297.37,211.54c0-23-18.65-41.65-41.65-41.65c-23,0-41.65,18.65-41.65,41.65c0,3.19,0.37,6.28,1.05,9.27
						l38.59,258.94c0.35,2.32,3.68,2.32,4.03,0l38.59-258.94C297,217.82,297.37,214.72,297.37,211.54z"/>
				</g>
			</g>
		</g>
	</g>
</g>
<g id="diff" class="st3">
</g>
</svg>
